<?xml version="1.0" encoding="UTF-8"?>
<svg width="26px" height="26px" viewBox="0 0 26 26" version="1.1" xmlns="http://www.w3.org/2000/svg" xmlns:xlink="http://www.w3.org/1999/xlink">
    <!-- Generator: Sketch 51.3 (57544) - http://www.bohemiancoding.com/sketch -->
    <title>Group</title>
    <desc>Created with Sketch.</desc>
    <defs></defs>
    <g id="Page-1" stroke="none" stroke-width="1" fill="none" fill-rule="evenodd">
        <g id="Group" transform="translate(0.000000, -0.133330)" fill="#333333" fill-rule="nonzero">
            <path d="M0.7972428,0.36905 C0.8635428,0.37605 0.9303328,0.39605 0.9926828,0.43095 L3.2092928,1.67736 C3.3401428,1.75146 3.4330528,1.87977 3.4648618,2.03005 L4.9147928,7.66608 L25.119931,7.66608 C25.462711,7.66608 25.709981,8.00799 25.611511,8.34665 L23.541481,17.70646 C23.476281,17.9303 23.275962,18.08396 23.049151,18.08396 C23.049151,18.08396 6.083852,18.07496 6.073092,18.07496 L6.073092,18.07573 C5.4450228,18.07573 4.9335828,18.60212 4.9335828,19.2493 C4.9335828,19.89699 5.4450228,20.42362 6.073092,20.42362 L18.876712,20.42362 C20.304752,20.42362 21.466912,21.62235 21.466912,23.09553 C21.466912,24.56819 20.304752,25.76666 18.876712,25.76666 C17.448682,25.76666 16.286522,24.56819 16.286522,23.09553 C16.286522,22.487 16.492692,21.93225 16.826212,21.48246 L10.294362,21.48246 C10.627902,21.93225 10.833302,22.487 10.833302,23.09553 C10.833302,24.56819 9.671652,25.76666 8.243113,25.76666 C6.814563,25.76666 5.6529128,24.56819 5.6529128,23.09553 C5.6529128,22.487 5.8590728,21.93225 6.192603,21.48246 L6.073092,21.48246 C4.8790428,21.48246 3.9075828,20.48067 3.9075828,19.2493 C3.9075828,18.19943 4.6159628,17.3227 5.5642218,17.08511 L2.5110128,2.4908 L0.5010928,1.36065 C0.2522328,1.2204 0.1604328,0.89875 0.2958928,0.6421 C0.3982628,0.45001 0.5983328,0.34887 0.7972428,0.36925 L0.7972428,0.36905 Z" id="Shape"></path>
        </g>
    </g>
</svg>